<?xml version="1.0" encoding="utf-8" ?>
<svg baseProfile="tiny" height="300" version="1.2" width="232" xmlns="http://www.w3.org/2000/svg" xmlns:ev="http://www.w3.org/2001/xml-events" xmlns:xlink="http://www.w3.org/1999/xlink"><defs /><path d="M 197,125 L 175,129 L 175,132 L 180,132 L 186,135 L 195,134 L 196,138 L 194,140 L 186,140 L 190,146 L 189,150 L 180,148 L 181,139 L 172,141 L 168,149 L 166,163 L 160,171 L 160,174 L 165,179 L 185,188 L 183,205 L 184,209 L 189,209 L 190,212 L 184,215 L 184,227 L 180,228 L 158,215 L 145,212 L 144,197 L 142,197 L 137,209 L 121,221 L 121,223 L 140,232 L 159,246 L 181,265 L 182,270 L 186,273 L 190,271 L 190,266 L 186,264 L 184,240 L 188,231 L 201,214 L 201,211 L 198,211 L 197,208 L 215,204 L 222,196 L 217,183 L 212,182 L 213,179 L 218,177 L 218,175 L 211,175 L 216,168 L 209,166 L 210,163 L 215,162 L 215,157 L 202,143 L 200,130 Z M 190,209 L 191,208 L 193,208 L 194,209 L 194,211 L 193,212 L 191,212 L 190,211 Z M 199,163 L 200,162 L 202,162 L 203,163 L 203,165 L 202,166 L 200,166 L 199,165 Z M 95,116 L 95,119 L 96,120 L 96,121 L 100,125 L 101,125 L 102,126 L 104,126 L 105,127 L 105,133 L 107,135 L 108,135 L 111,137 L 111,143 L 113,145 L 114,145 L 115,146 L 117,146 L 118,147 L 118,153 L 120,155 L 121,155 L 122,156 L 126,156 L 127,157 L 127,160 L 128,160 L 129,161 L 131,161 L 132,160 L 133,160 L 133,159 L 134,158 L 134,156 L 130,156 L 129,155 L 129,151 L 128,150 L 126,150 L 125,149 L 125,147 L 127,145 L 127,143 L 126,142 L 126,140 L 127,139 L 128,139 L 128,137 L 129,136 L 134,136 L 135,135 L 135,129 L 133,127 L 133,126 L 132,125 L 131,125 L 128,123 L 108,123 L 107,122 L 105,122 L 104,121 L 103,121 L 101,119 L 100,119 L 97,116 Z " fill="#ffffff" fill-rule="evenodd" stroke="none" /><path d="M 170,130 L 167,130 L 164,136 L 159,134 L 155,139 L 151,139 L 150,142 L 143,138 L 142,141 L 137,140 L 134,143 L 136,154 L 142,155 L 141,159 L 136,159 L 136,167 L 139,174 L 138,178 L 130,177 L 127,182 L 112,196 L 109,195 L 111,189 L 107,189 L 87,197 L 65,218 L 65,221 L 74,218 L 75,222 L 79,222 L 101,215 L 104,216 L 104,218 L 101,219 L 101,221 L 117,218 L 125,214 L 133,206 L 137,199 L 139,189 L 138,181 L 141,180 L 146,191 L 148,208 L 166,215 L 177,222 L 180,222 L 181,189 L 173,187 L 165,182 L 160,185 L 158,183 L 160,178 L 152,169 L 146,158 L 142,156 L 144,151 L 147,150 L 148,144 L 153,143 L 154,148 L 151,161 L 155,161 L 156,168 L 158,168 L 164,155 Z M 149,187 L 150,186 L 152,186 L 153,187 L 153,189 L 152,190 L 150,190 L 149,189 Z M 167,65 L 157,60 L 144,57 L 121,57 L 110,59 L 87,68 L 65,88 L 56,102 L 50,122 L 50,147 L 57,175 L 56,190 L 49,207 L 39,222 L 47,220 L 58,213 L 82,187 L 91,183 L 92,180 L 101,183 L 102,173 L 122,163 L 123,159 L 115,154 L 114,149 L 108,143 L 107,138 L 102,134 L 100,128 L 94,122 L 92,118 L 94,112 L 108,120 L 127,120 L 135,122 L 139,132 L 145,132 L 146,135 L 149,135 L 151,130 L 161,122 L 183,118 L 190,114 L 189,110 L 179,100 L 175,99 L 178,91 L 177,86 L 162,82 L 161,69 L 167,68 Z M 68,130 L 69,129 L 71,129 L 72,130 L 72,132 L 71,133 L 69,133 L 68,132 Z M 147,77 L 148,76 L 157,76 L 158,77 L 158,79 L 157,80 L 148,80 L 147,79 Z " fill="#FACA01" fill-rule="evenodd" stroke="none" /><path d="M 11,218 L 12,219 L 12,220 L 13,221 L 13,222 L 14,222 L 15,223 L 16,223 L 17,224 L 22,224 L 23,223 L 26,223 L 27,222 L 28,222 L 29,221 L 30,221 L 37,214 L 37,211 L 36,211 L 35,210 L 30,210 L 29,209 L 19,209 L 18,210 L 17,210 L 16,211 L 15,211 L 12,214 L 12,215 L 11,216 Z M 21,189 L 21,191 L 20,192 L 20,197 L 21,198 L 21,199 L 22,200 L 22,201 L 23,202 L 24,202 L 26,204 L 28,204 L 29,205 L 32,205 L 33,206 L 41,206 L 42,205 L 43,205 L 43,204 L 44,203 L 44,202 L 45,201 L 45,200 L 46,199 L 46,198 L 47,197 L 47,196 L 48,195 L 48,193 L 49,192 L 49,187 L 45,187 L 44,186 L 33,186 L 32,185 L 26,185 L 25,186 L 24,186 Z M 105,177 L 105,183 L 108,186 L 114,186 L 115,185 L 117,185 L 118,184 L 119,184 L 120,183 L 121,183 L 122,182 L 122,179 L 116,179 L 113,176 L 113,172 L 110,172 L 109,173 L 108,173 L 107,174 L 107,175 Z M 22,163 L 22,166 L 21,167 L 21,170 L 22,171 L 22,174 L 27,179 L 28,179 L 29,180 L 30,180 L 31,181 L 40,181 L 41,182 L 48,182 L 49,181 L 51,181 L 51,171 L 50,170 L 50,165 L 49,164 L 49,162 L 48,161 L 48,160 L 36,160 L 35,159 L 28,159 L 27,160 L 25,160 Z M 28,137 L 28,138 L 27,139 L 27,146 L 28,147 L 28,149 L 31,152 L 32,152 L 33,153 L 34,153 L 35,154 L 41,154 L 42,155 L 45,155 L 46,154 L 46,148 L 45,147 L 45,139 L 44,138 L 44,137 L 43,137 L 42,136 L 39,136 L 38,135 L 33,135 L 32,136 L 30,136 L 29,137 Z M 34,113 L 33,114 L 33,115 L 32,116 L 32,118 L 31,119 L 31,121 L 32,122 L 32,124 L 33,125 L 33,126 L 35,128 L 36,128 L 37,129 L 38,129 L 39,130 L 44,130 L 44,127 L 45,126 L 45,117 L 46,116 L 46,114 L 45,113 L 44,113 L 43,112 L 36,112 L 35,113 Z M 39,92 L 37,94 L 37,95 L 36,96 L 36,101 L 37,102 L 37,103 L 40,106 L 42,106 L 43,107 L 45,107 L 46,108 L 49,108 L 50,107 L 50,105 L 51,104 L 51,102 L 52,101 L 52,100 L 53,99 L 53,98 L 54,97 L 54,95 L 53,95 L 51,93 L 50,93 L 49,92 L 48,92 L 47,91 L 41,91 L 40,92 Z M 44,73 L 43,74 L 43,79 L 44,80 L 44,81 L 45,82 L 45,83 L 49,87 L 50,87 L 52,89 L 53,89 L 54,90 L 55,90 L 56,91 L 58,91 L 59,90 L 59,89 L 61,87 L 61,86 L 62,85 L 62,83 L 58,79 L 57,79 L 53,75 L 52,75 L 50,73 Z M 195,48 L 193,46 L 192,46 L 191,45 L 182,45 L 181,46 L 179,46 L 178,47 L 177,47 L 176,48 L 175,48 L 172,51 L 171,51 L 169,53 L 169,54 L 167,56 L 167,60 L 168,61 L 169,61 L 170,62 L 174,62 L 175,63 L 177,63 L 178,62 L 183,62 L 184,61 L 186,61 L 187,60 L 188,60 L 189,59 L 190,59 L 192,57 L 193,57 L 195,55 Z M 82,41 L 76,41 L 74,43 L 73,43 L 73,44 L 71,46 L 71,49 L 70,50 L 70,53 L 71,54 L 71,57 L 72,58 L 72,60 L 71,61 L 69,61 L 63,57 L 57,57 L 56,58 L 55,58 L 53,61 L 53,66 L 54,67 L 54,68 L 65,79 L 67,79 L 75,71 L 75,69 L 74,68 L 74,66 L 75,65 L 77,65 L 79,67 L 82,67 L 84,65 L 85,65 L 86,64 L 87,64 L 88,63 L 89,63 L 91,61 L 92,61 L 92,57 L 91,56 L 91,54 L 90,53 L 90,51 L 89,50 L 89,49 L 88,48 L 88,47 L 85,44 L 85,43 L 84,43 Z M 96,34 L 93,37 L 93,38 L 92,39 L 92,46 L 93,47 L 93,50 L 94,51 L 94,52 L 95,53 L 95,54 L 96,55 L 96,56 L 97,57 L 97,58 L 100,58 L 101,57 L 103,57 L 104,56 L 106,56 L 107,55 L 110,55 L 111,54 L 113,54 L 114,53 L 114,49 L 113,48 L 113,45 L 112,44 L 112,43 L 111,42 L 111,41 L 110,40 L 110,39 L 106,35 L 105,35 L 104,34 L 102,34 L 101,33 L 98,33 L 97,34 Z M 155,30 L 154,31 L 153,31 L 152,32 L 151,32 L 149,34 L 149,35 L 148,36 L 148,37 L 147,38 L 147,39 L 146,40 L 146,42 L 145,43 L 145,53 L 146,53 L 147,54 L 149,54 L 150,55 L 153,55 L 154,56 L 157,56 L 158,57 L 160,57 L 161,56 L 162,56 L 162,55 L 163,54 L 163,52 L 164,51 L 164,48 L 165,47 L 165,44 L 166,43 L 166,37 L 165,36 L 165,35 L 164,34 L 164,33 L 162,31 L 161,31 L 160,30 Z M 124,28 L 120,32 L 120,33 L 119,34 L 119,36 L 118,37 L 118,47 L 119,48 L 119,52 L 120,53 L 124,53 L 125,52 L 138,52 L 139,51 L 139,38 L 138,37 L 138,35 L 137,34 L 137,33 L 133,29 L 132,29 L 131,28 Z " fill="#ad2122" fill-rule="evenodd" stroke="none" /><path d="M 157,247 L 157,249 L 161,253 L 162,253 L 172,263 L 172,264 L 178,270 L 180,270 L 180,266 L 179,265 L 178,265 L 164,251 L 163,251 L 159,247 Z M 153,244 L 153,246 L 155,246 L 155,244 Z M 186,237 L 186,239 L 185,240 L 185,250 L 186,251 L 186,255 L 187,256 L 187,263 L 190,263 L 190,259 L 189,258 L 189,256 L 188,255 L 188,252 L 187,251 L 187,240 L 188,239 L 188,237 Z M 180,225 L 180,227 L 183,227 L 183,225 Z M 9,219 L 9,221 L 11,221 L 11,219 Z M 193,209 L 191,209 L 190,210 L 185,210 L 184,211 L 182,211 L 182,214 L 184,214 L 185,213 L 186,213 L 187,212 L 189,212 L 190,211 L 193,211 Z M 209,207 L 204,207 L 203,208 L 198,208 L 198,210 L 202,210 L 203,211 L 203,213 L 205,213 L 209,209 Z M 145,207 L 145,211 L 149,211 L 149,209 L 148,209 L 147,208 L 147,207 Z M 122,184 L 120,184 L 119,185 L 118,185 L 117,186 L 115,186 L 114,187 L 114,189 L 112,191 L 112,193 L 114,193 L 118,189 L 119,189 L 122,186 Z M 221,177 L 219,177 L 217,179 L 215,179 L 214,180 L 213,180 L 213,182 L 215,182 L 216,181 L 219,181 L 221,179 Z M 218,171 L 216,171 L 215,172 L 214,172 L 213,173 L 212,173 L 212,175 L 214,175 L 215,174 L 218,174 Z M 19,171 L 19,174 L 21,174 L 21,171 Z M 156,170 L 156,172 L 159,172 L 159,170 Z M 210,164 L 210,166 L 216,166 L 216,164 Z M 151,164 L 151,166 L 152,167 L 154,167 L 154,164 Z M 200,163 L 200,165 L 202,165 L 202,163 Z M 124,157 L 124,162 L 121,165 L 120,165 L 119,166 L 118,166 L 117,167 L 115,167 L 114,168 L 113,168 L 113,170 L 114,171 L 114,176 L 116,178 L 122,178 L 123,179 L 124,179 L 125,180 L 127,180 L 128,179 L 128,178 L 132,174 L 134,174 L 135,173 L 136,173 L 136,169 L 135,168 L 135,161 L 132,161 L 131,162 L 129,162 L 128,161 L 127,161 L 126,160 L 126,157 Z M 150,160 L 150,155 L 148,155 L 147,154 L 147,153 L 145,153 L 143,155 L 135,155 L 135,157 L 141,157 L 142,156 L 145,156 L 148,159 L 148,160 Z M 167,152 L 165,152 L 165,156 L 164,157 L 164,159 L 163,160 L 163,161 L 162,162 L 162,165 L 164,165 L 164,164 L 165,163 L 165,161 L 166,160 L 166,156 L 167,155 Z M 130,152 L 130,154 L 132,154 L 132,152 Z M 115,147 L 115,150 L 117,150 L 117,147 Z M 186,145 L 185,146 L 185,148 L 186,148 L 187,149 L 189,149 L 189,146 L 188,145 Z M 108,137 L 108,139 L 110,139 L 110,137 Z M 145,134 L 140,134 L 138,132 L 136,132 L 136,135 L 134,137 L 130,137 L 130,139 L 129,140 L 127,140 L 127,142 L 128,143 L 128,145 L 126,147 L 126,149 L 129,149 L 129,144 L 131,142 L 134,142 L 137,139 L 140,139 L 140,138 L 142,136 L 145,136 Z M 101,127 L 101,129 L 104,129 L 104,127 Z M 29,122 L 29,124 L 31,124 L 31,122 Z M 29,116 L 29,118 L 31,118 L 31,116 Z M 198,115 L 196,113 L 191,112 L 191,115 L 187,118 L 185,118 L 184,119 L 180,119 L 179,120 L 176,120 L 175,121 L 171,121 L 170,122 L 166,122 L 165,123 L 162,123 L 161,124 L 159,124 L 158,125 L 157,125 L 153,129 L 153,130 L 151,133 L 151,135 L 149,137 L 147,137 L 147,139 L 150,139 L 153,137 L 155,137 L 159,133 L 160,133 L 161,132 L 165,132 L 165,131 L 167,129 L 170,129 L 171,130 L 171,133 L 170,134 L 170,136 L 169,137 L 169,139 L 168,140 L 168,143 L 170,143 L 170,142 L 172,140 L 173,140 L 176,138 L 181,138 L 183,140 L 183,142 L 185,142 L 185,140 L 186,139 L 194,139 L 195,138 L 195,135 L 193,135 L 192,136 L 186,136 L 185,135 L 184,135 L 183,134 L 181,134 L 180,133 L 175,133 L 174,132 L 174,129 L 175,128 L 180,128 L 181,127 L 187,127 L 188,126 L 191,126 L 192,125 L 194,125 L 195,124 L 199,124 L 199,118 L 198,117 Z M 178,93 L 178,95 L 177,96 L 177,98 L 178,98 L 179,99 L 181,99 L 181,97 L 180,96 L 180,93 Z M 177,83 L 177,85 L 178,86 L 178,87 L 180,87 L 180,84 L 179,83 Z M 162,77 L 162,79 L 164,79 L 164,77 Z M 163,70 L 163,72 L 165,72 L 165,70 Z M 88,65 L 83,68 L 75,66 L 76,71 L 67,80 L 53,68 L 52,62 L 50,68 L 44,70 L 63,83 L 56,92 L 42,82 L 41,90 L 55,95 L 49,109 L 34,102 L 33,112 L 47,114 L 44,131 L 33,129 L 30,135 L 45,137 L 47,154 L 35,155 L 27,150 L 26,141 L 24,144 L 30,158 L 49,160 L 52,181 L 31,182 L 22,177 L 26,184 L 49,186 L 50,192 L 43,206 L 33,207 L 21,201 L 19,186 L 17,199 L 22,208 L 35,209 L 38,214 L 26,224 L 14,224 L 18,230 L 8,237 L 8,243 L 13,247 L 28,246 L 58,232 L 79,227 L 122,226 L 120,221 L 136,209 L 141,196 L 145,195 L 139,181 L 138,199 L 122,217 L 104,222 L 95,218 L 69,225 L 63,219 L 80,201 L 107,188 L 104,183 L 93,182 L 81,189 L 57,215 L 37,223 L 55,189 L 55,169 L 48,141 L 51,112 L 60,92 Z M 196,49 L 196,53 L 198,53 L 198,49 Z M 185,42 L 185,44 L 189,44 L 189,42 Z M 72,42 L 70,42 L 69,43 L 69,44 L 68,45 L 68,47 L 67,48 L 67,54 L 66,55 L 64,55 L 63,54 L 59,54 L 59,56 L 63,56 L 64,57 L 65,57 L 67,59 L 68,59 L 69,60 L 71,60 L 71,58 L 70,57 L 70,54 L 69,53 L 69,50 L 70,49 L 70,46 L 72,44 Z M 95,31 L 95,33 L 97,33 L 98,32 L 101,32 L 102,33 L 104,33 L 105,34 L 107,34 L 107,32 L 106,32 L 105,31 L 104,31 L 103,30 L 97,30 L 96,31 Z M 157,27 L 157,29 L 159,29 L 159,27 Z M 77,38 L 77,40 L 82,40 L 89,47 L 93,57 L 93,61 L 91,62 L 91,64 L 109,58 L 119,56 L 136,55 L 150,57 L 160,60 L 166,63 L 169,67 L 175,66 L 174,63 L 170,63 L 166,60 L 166,56 L 172,50 L 172,48 L 170,47 L 169,36 L 167,32 L 165,32 L 167,37 L 165,51 L 163,56 L 160,58 L 150,56 L 144,53 L 144,43 L 148,33 L 142,35 L 139,30 L 133,25 L 129,25 L 129,27 L 133,28 L 138,33 L 140,38 L 140,51 L 138,53 L 120,54 L 118,52 L 117,47 L 118,34 L 116,34 L 115,38 L 112,39 L 115,53 L 113,55 L 97,59 L 92,50 L 91,39 L 86,40 L 81,38 Z " fill="#1d2a5d" fill-rule="evenodd" stroke="none" /></svg>